<?xml version="1.0" encoding="UTF-8"?>
<svg version="1.1" viewBox="0 0 2048 2048" width="1280" height="1280" xmlns="http://www.w3.org/2000/svg">
<path transform="translate(1008,771)" d="m0 0h29l30 3 17 3 21 6 15 6 16 8 17 9 15 10 17 13 15 14 9 9 18 22 14 21 10 18 9 21 9 28 5 22 2 18v40l-2 21-6 25-7 23-10 23-12 22-12 17-9 12-12 14-10 9-7 7-13 10-14 10-19 11-24 11-21 7-26 7-18 3-10 1h-44l-18-2-23-5-20-6-24-10-21-11-17-12-17-14-8-7-11-10-7-8-12-15-12-17-13-23-10-22-9-27-5-24-2-14-1-14v-22l3-27 3-17 8-27 10-24 12-22 10-16 12-16 15-16 16-16 13-10 13-9 19-12 27-13 24-8 24-5z" fill="#E37B18"/>
<path transform="translate(1746,301)" d="m0 0 7 3 12 12 9 11 11 12 7 8 10 11 18 22 10 12 15 20 13 18 10 14 12 18 15 23 16 27 8 14 13 24 19 38 13 29 17 43 11 30 12 39 10 36 13 54 9 48 8 51 4 29v149l-7 49-6 38-8 44-10 42-8 32-13 44-10 29-14 36-12 29-14 30-15 30-13 23-9 16-8 13-12 20-10 15-7 10-8 12-12 17-8 10-9 12-11 14-7 9-9 11-11 13-9 10-7 8-7 7-9 11-12 13-5 1-9-6-11-12-8-7-15-15-6-5-13-13v-2l-4-2v-2l-4-2-7-7-7-8 1-5 8-8 7-8 12-12 7-8 10-11 5-5 9-11 8-10 8-11 13-18 13-17 18-27 10-16 13-22 13-23 8-16 8-15 9-20 11-24 11-28 7-19 12-35 14-51 8-35 8-45 4-27 4-44 2-38v-69l-3-45-4-34-9-58-9-40-10-37-9-30-16-45-15-36-13-28-19-38-13-23-17-28-10-16-11-16-12-17-10-14-10-13-11-14-12-14-12-13-7-8-15-16-12-12v-2l-3-1 1-5 12-12 5-6 8-7 55-55z" fill="#E37B18"/>
<path transform="translate(297,301)" d="m0 0 5 1 13 12 7 7 7 8 13 12 32 32 7 9 1 6-15 15-9 11-13 14-7 8-11 13-9 11-8 11-14 19-12 16-12 17-14 23-7 11-13 22-14 25-17 34-8 18-11 25-13 34-16 47-12 43-8 36-11 63-4 36-3 49v69l2 37 4 39 7 47 9 45 9 35 9 32 15 43 11 28 13 30 17 35 8 16 15 27 13 22 14 22 11 16 12 17 14 19 14 18 11 13 12 14 14 15 9 11 11 11 7 10 1 3-7 8-15 14-9 10-38 38-7 8-6 4-4-1-8-7-9-10-7-8-10-10-7-8-12-14-18-22-12-15-13-17-9-12-9-13-7-10-16-24-11-18-10-16-14-25-12-22-17-34-16-36-12-30-9-25-11-31-14-49-13-56-7-37-7-44-7-55v-163l5-31 11-61 9-45 9-38 10-34 12-38 14-37 14-34 16-35 16-32 12-22 11-19 12-20 13-20 10-15 13-19 28-38 13-16 9-11 11-13 9-10 13-15 15-16 7-8z" fill="#E37B18"/>
<path transform="translate(480,484)" d="m0 0 5 1 10 9 9 9v2l4 2v2l4 2 4 4v2l4 2 31 31 8 7 6 8-2 4-11 12-9 9-7 9-11 13-21 28-8 10-11 17-13 21-10 16-15 28-13 27-17 42-12 36-7 24-7 32-7 35-4 32-2 31v72l3 34 6 41 9 40 7 27 12 36 8 21 11 26 12 26 13 23 9 16 8 13 14 21 8 11 14 19 22 28 12 13 15 15 3 5-1 5-6 8-16 14-7 8-25 25-7 8-10 10-7 8-4-1-17-17-7-8-8-8-7-8-10-11-13-17-12-16-14-19-18-27-12-20-13-22-17-33-14-30-12-30-16-47-7-24-12-48-8-45-5-43-2-32v-72l2-30 5-41 9-50 8-35 9-31 10-30 12-32 10-23 8-18 8-16 9-17 6-12 17-28 10-16 10-15 10-14 14-19 10-13 11-13 8-10 10-11 7-8 12-13z" fill="#E37B18"/>
<path transform="translate(1563,482)" d="m0 0 5 2 7 7 7 8 11 12 15 16 9 11 10 13 13 17 14 19 17 26 16 26 10 18 11 20 13 28 11 25 11 29 11 31 12 43 7 29 9 51 4 31 3 41 1 25v25l-2 44-3 34-4 28-10 53-9 36-9 30-7 21-12 32-11 25-10 22-8 16-16 29-12 19-11 18-8 12-14 19-10 14-9 12-11 13-7 9-8 8-7 8-7 7-7 8-11 13-4-2-13-13-7-8-10-10-8-7-26-26-5-6-8-7-3-4-1-5 4-2 2-4 8-7 7-8 9-10 10-11 10-13 7-8 8-11 7-10 14-21 13-22 14-25 8-16 12-25 12-30 16-47 10-40 8-39 5-40 2-30 1-21v-36l-2-35-3-26-8-47-9-38-8-28-8-23-8-21-12-28-12-25-13-25-10-17-15-24-12-17-12-16-13-16-8-10-12-14-12-13-8-8-2-3 1-5 17-16 7-7 8-7 10-10 7-8 21-21 7-8z" fill="#E37B18"/>
<path transform="translate(661,664)" d="m0 0 5 2 15 14 7 7 6 7 2 1v2l4 2 30 30 8 7 7 8 2 4-9 9-7 8-13 16-12 17-15 24-6 10-15 29-8 19-9 25-10 36-4 19-3 23-1 12-1 34 1 25 3 25 4 23 6 24 8 26 8 20 10 23 12 22 12 19 13 19 14 18 8 8 9 12 4 6-1 5-8 7-12 11-15 14-6 7-8 7-12 12-9 11-10 9-4-2-12-12-7-8-10-11-9-11-10-13-13-18-13-21-11-19-12-23-8-17-12-30-12-37-8-32-5-27-4-34-1-14-1-28v-15l2-33 5-37 7-34 9-33 12-34 14-32 11-22 13-23 15-24 10-13 10-14 14-18 9-11 14-15z" fill="#E37B18"/>
<path transform="translate(1382,664)" d="m0 0 5 2 10 10 7 8 11 13 9 11 10 13 11 16 11 17 8 13 15 28 8 16 11 26 14 40 9 36 6 31 4 30 2 27v43l-3 41-5 30-9 40-6 21-13 38-8 18-7 15-12 23-13 22-16 24-10 14-18 22-8 8-10 13-9 9-5-3-10-8-7-8-17-16-13-13-7-8-5-4v-2l-4-2-7-6-7-5-3-5 2-5 9-11 10-13 10-12 11-15 15-23 12-22 6-12 12-29 9-29 8-31 4-26 2-19 1-18v-36l-3-30-5-28-7-28-12-36-15-33-15-27-18-27-9-12-11-14-11-13-6-9 6-7 11-8 3-3h2v-2l8-7 15-15 7-8 19-19 6-7z" fill="#E37B18"/>
</svg>
